# xmcd
#
# Track frame offsets:
#	150
#	12662
#	25310
#	39217
#	52155
#	65062
#	78507
#	93177
#	106335
#	118295
#	131002
#	144217
#	155620
#	167330
#	180342
#	192030
#	204965
#	219337
#	231537
#	243805
#	258602
#	269705
#
# Disc length: 3758 seconds
#
# Revision: 2
# Processed by: cddbd v1.5.2PL0 Copyright (c) Steve Scherf et al.
# Submitted via: EasyCDDAExtractor 2010.6.0.0
#
DISCID=370eac16
DTITLE=Big Bill Broonzy - Warm, Witty and Wise
DYEAR=1998
DGENRE=Blues
TTITLE0=I Can't Be Satisfied
TTITLE1=Long Tall Mama
TTITLE2=Worrying Off My Mind
TTITLE3=Too Too Train Blues
TTITLE4=How You Want It Done?
TTITLE5=C and A Blues
TTITLE6=Southern Flood Blues
TTITLE7=It's a Low Down Dirty Shame
TTITLE8=Trucking Little Woman
TTITLE9=Night Time Is the Right Time
TTITLE10=New Shake 'em on Down
TTITLE11=Baby I Done Got Wise
TTITLE12=Just a Dream
TTITLE13=Whiskey and Good Time Blues
TTITLE14=Too Many Drivers
TTITLE15=When I Been Drinking
TTITLE16=Horny Frog
TTITLE17=Spreadin' Snakes Blues
TTITLE18=Messed Up in Love
TTITLE19=Getting Older Every Day
TTITLE20=All by Myself
TTITLE21=In the Army Now
EXTD=
EXTT0=
EXTT1=
EXTT2=
EXTT3=
EXTT4=
EXTT5=
EXTT6=
EXTT7=
EXTT8=
EXTT9=
EXTT10=
EXTT11=
EXTT12=
EXTT13=
EXTT14=
EXTT15=
EXTT16=
EXTT17=
EXTT18=
EXTT19=
EXTT20=
EXTT21=
PLAYORDER=
